<?xml version="1.0" encoding="utf-8"?>
<!-- Generator: Adobe Illustrator 27.1.0, SVG Export Plug-In . SVG Version: 6.00 Build 0)  -->
<svg version="1.1" xmlns="http://www.w3.org/2000/svg" xmlns:xlink="http://www.w3.org/1999/xlink" x="0px" y="0px"
	 viewBox="0 0 595.28 841.89" style="enable-background:new 0 0 595.28 841.89;" xml:space="preserve">
<style type="text/css">
	.st0{display:none;}
	.st1{display:inline;}
	.st2{clip-path:url(#SVGID_00000166647793295839093760000015010627700356620419_);}
	.st3{clip-path:url(#SVGID_00000035500143539742980930000003833312119455176603_);fill:#86C276;}
	.st4{clip-path:url(#SVGID_00000035500143539742980930000003833312119455176603_);fill:#FFFFFF;}
	.st5{fill:#86C276;}
	.st6{font-family:'MantikaSansProCYR-Regular';}
	.st7{font-size:64.1871px;}
	.st8{letter-spacing:-0.96;}
	.st9{letter-spacing:-1.93;}
	.st10{filter:url(#Adobe_OpacityMaskFilter);}
	.st11{mask:url(#Capa_2_00000127763558292150389090000002123153670446292149_);}
	.st12{fill:#FFFFFF;}
	.st13{filter:url(#Adobe_OpacityMaskFilter_00000086668635381576680760000010705794485982238110_);}
	.st14{fill:#86C176;}
	.st15{fill:none;}
	.st16{font-size:48px;}
</style>
<g id="Capa_1" class="st0">
	<g class="st1">
		<g>
			<defs>
				<rect id="SVGID_1_" x="-6.58" y="223.76" width="608.43" height="423.02"/>
			</defs>
			<clipPath id="SVGID_00000082354565827062290060000015408735121982745233_">
				<use xlink:href="#SVGID_1_"  style="overflow:visible;"/>
			</clipPath>
			<g style="clip-path:url(#SVGID_00000082354565827062290060000015408735121982745233_);">
				<defs>
					<rect id="SVGID_00000139278147391120425100000014800558080630348420_" x="-6.58" y="223.76" width="608.43" height="423.02"/>
				</defs>
				<clipPath id="SVGID_00000176005486506052055670000004866082772098779020_">
					<use xlink:href="#SVGID_00000139278147391120425100000014800558080630348420_"  style="overflow:visible;"/>
				</clipPath>
				<path style="clip-path:url(#SVGID_00000176005486506052055670000004866082772098779020_);fill:#86C276;" d="M142.59,268.12
					c0,0-19.31,64.18-7.42,100.01c0,0-56.74-11.46-104.56,8.02c0,0,17.23,52.15,20.79,55.31c0,0,17.53,1.14,23.47,0
					c0,0-23.76-32.95-18.12-41.84c0,0,41.59-10.89,84.36-0.86c0,0,7.13,31.1,18.72,43.2h23.46c0,0-20.19-27.73-19.6-36.62
					c0,0,30.6,7.32,60.3,36.62h30.89c0,0-17.82-49.51-5.05-83.9c0,0,33.57,40.56,35.94,83.9h20.2c0,0,2.97-44.64,41.88-85.9
					c0,0,6.53,61.2-10.09,85.9h32.97c0,0,26.43-28.02,59.4-36.33c0,0-1.19,17.06-18.12,36.33h21.98c0,0,18.72-29.74,20.5-42.63
					c0,0,51.39-11.46,82.87,1.43c0,0-10.99,30.25-18.71,41.2h22.87c0,0,17.82-38.05,19.31-55.52c0,0-46.04-18.06-102.18-9.17
					c0,0,6.83-72.21-9.8-99.14c0,0-60.59,14.04-93.56,41.84c0,0-27.92-59.6-57.92-79.66c0,0-52.87,45.56-59.7,80.52
					C237.64,310.82,182.09,272.14,142.59,268.12"/>
				<path style="clip-path:url(#SVGID_00000176005486506052055670000004866082772098779020_);fill:#FFFFFF;" d="M156.65,293.34
					c0,0-9.11,61.89,0,78.71c0,0,34.46,7.64,71.29,38.21c0,0-3.96-73.8,3.57-79.12C231.5,331.14,200.21,302.9,156.65,293.34"/>
				<path style="clip-path:url(#SVGID_00000176005486506052055670000004866082772098779020_);fill:#FFFFFF;" d="M254.07,327.35
					c0,0,22.11-59.94,43.56-68.01c0,0,28.91,22.16,42.77,65.33c0,0-30.7,33.43-43.17,65.72
					C297.24,390.39,277.27,348.36,254.07,327.35"/>
				<path style="clip-path:url(#SVGID_00000176005486506052055670000004866082772098779020_);fill:#FFFFFF;" d="M362.19,331.13
					c0,0,43.17-35.12,70.89-37.79c0,0,17.03,31.71,5.15,78.71c0,0-51.49,16.49-71.68,38.21
					C366.55,410.25,370.91,341.8,362.19,331.13"/>
				<path style="clip-path:url(#SVGID_00000176005486506052055670000004866082772098779020_);fill:#86C276;" d="M23.18,550.66h36.83
					c0,0,75.44,50.43,170.49,0h36.24C266.75,550.66,152.09,644.08,23.18,550.66"/>
				<path style="clip-path:url(#SVGID_00000176005486506052055670000004866082772098779020_);fill:#86C276;" d="M330.91,550.66
					h35.05c0,0,73.66,49.86,170.49,0h35.65C572.1,550.66,453.28,642.93,330.91,550.66"/>
				<path style="clip-path:url(#SVGID_00000176005486506052055670000004866082772098779020_);fill:#86C276;" d="M93.28,613.7
					c0,0,207.92-34.19,407.53,0C500.81,613.7,321.4,644.08,93.28,613.7"/>
			</g>
			<g style="clip-path:url(#SVGID_00000082354565827062290060000015408735121982745233_);">
				<text transform="matrix(1.0366 0 0 1 32.5586 513.4961)"><tspan x="0" y="0" class="st5 st6 st7">A</tspan><tspan x="43" y="0" class="st5 st6 st7 st8">R</tspan><tspan x="80.2" y="0" class="st5 st6 st7">TESANOS</tspan><tspan x="356.76" y="0" class="st5 st6 st7 st9"> </tspan><tspan x="370.75" y="0" class="st5 st6 st7">WEB</tspan></text>
			</g>
		</g>
	</g>
</g>
<defs>
	<filter id="Adobe_OpacityMaskFilter" filterUnits="userSpaceOnUse" x="85.5" y="267.43" width="382.5" height="150.81">
		
			<feColorMatrix  type="matrix" values="-1 0 0 0 1  0 -1 0 0 1  0 0 -1 0 1  0 0 0 1 0" color-interpolation-filters="sRGB" result="source"/>
		<feFlood  style="flood-color:white;flood-opacity:1" result="back"/>
		<feBlend  in="source" in2="back" mode="normal"/>
	</filter>
</defs>
<mask maskUnits="userSpaceOnUse" x="85.5" y="267.43" width="382.5" height="150.81" id="Capa_2_00000101064810131534557200000015103732018023965623_">
	<g class="st10">
	</g>
</mask>
<g id="Capa_2" style="mask:url(#Capa_2_00000101064810131534557200000015103732018023965623_);">
	<path class="st12" d="M166.29,295.71c0,0-13.93,48-5.36,74.79c0,0-40.93-8.57-75.43,6c0,0,12.43,39,15,41.36
		c0,0,12.64,0.86,16.93,0c0,0-17.14-24.64-13.07-31.29c0,0,30-8.14,60.86-0.64c0,0,5.14,23.26,13.5,32.31h16.93
		c0,0-14.57-20.74-14.14-27.38c0,0,22.07,5.48,43.5,27.38h22.29c0,0-12.86-37.02-3.64-62.74c0,0,24.21,30.33,25.93,62.74h14.57
		c0,0,2.14-33.38,30.21-64.24c0,0,4.71,45.76-7.29,64.24h23.79c0,0,19.07-20.95,42.86-27.17c0,0-0.86,12.76-13.07,27.17h15.86
		c0,0,13.5-22.24,14.79-31.88c0,0,37.07-8.57,59.79,1.07c0,0-7.93,22.62-13.5,30.81h16.5c0,0,12.86-28.45,13.93-41.52
		c0,0-33.21-13.5-73.71-6.86c0,0,4.93-54-7.07-74.14c0,0-43.71,10.5-67.5,31.29c0,0-20.14-44.57-41.79-59.57
		c0,0-38.14,34.07-43.07,60.21C234.86,327.64,194.79,298.71,166.29,295.71z"/>
	<defs>
		
			<filter id="Adobe_OpacityMaskFilter_00000065059557504220657740000012416249228812783749_" filterUnits="userSpaceOnUse" x="173.51" y="289.14" width="209.1" height="112.86">
			
				<feColorMatrix  type="matrix" values="-1 0 0 0 1  0 -1 0 0 1  0 0 -1 0 1  0 0 0 1 0" color-interpolation-filters="sRGB" result="source"/>
			<feFlood  style="flood-color:white;flood-opacity:1" result="back"/>
			<feBlend  in="source" in2="back" mode="normal"/>
		</filter>
	</defs>
	
		<mask maskUnits="userSpaceOnUse" x="173.51" y="289.14" width="209.1" height="112.86" id="Capa_2_00000101064810131534557200000015103732018023965623_">
		<g style="filter:url(#Adobe_OpacityMaskFilter_00000065059557504220657740000012416249228812783749_);">
		</g>
	</mask>
	<g id="Capa_3">
		<path class="st14" d="M227.86,402c-26.57-22.86-51.43-28.57-51.43-28.57c-6.57-12.57,0-58.86,0-58.86
			c31.43,7.14,54,28.26,54,28.26C225,346.81,227.86,402,227.86,402z"/>
		<path class="st14" d="M309,338c0,0-22.15,25-31.14,49.14c0,0-14.41-31.43-31.15-47.14c0,0,15.96-44.82,31.43-50.86
			C278.14,289.14,299,305.71,309,338z"/>
		<path class="st14" d="M379.57,373.43c0,0-37.14,12.33-51.71,28.57c0,0,3.14-51.19-3.15-59.17c0,0,31.15-26.26,51.15-28.26
			C375.86,314.57,388.14,338.29,379.57,373.43z"/>
	</g>
</g>
<g id="Capa_4">
	<path class="st12" d="M80.14,507h26.57c0,0,54.43,37.71,123,0h26.14C255.86,507,173.14,576.86,80.14,507z"/>
	<path class="st12" d="M302.14,507h25.29c0,0,53.14,37.29,123,0h25.71C476.14,507,390.43,576,302.14,507z"/>
	<path class="st12" d="M130.71,554.14c0,0,150-25.57,294,0C424.71,554.14,295.29,576.86,130.71,554.14z"/>
</g>
<g id="Artesanos_Web">
	<rect x="86.91" y="442.97" class="st15" width="389.24" height="44.74"/>
	<text transform="matrix(1 0 0 1 86.9075 479.2043)" class="st12 st6 st16">ARTESANOS WEB</text>
</g>
</svg>
